<svg width="2835" height="547" xmlns="http://www.w3.org/2000/svg" xmlns:xlink="http://www.w3.org/1999/xlink" xml:space="preserve" overflow="hidden"><g transform="translate(-675 -515)"><path d="M1213.5 668.834C1213.5 639.379 1237.38 615.5 1266.83 615.5L1907.17 615.5C1936.62 615.5 1960.5 639.379 1960.5 668.834L1960.5 882.166C1960.5 911.621 1936.62 935.5 1907.17 935.5L1266.83 935.5C1237.38 935.5 1213.5 911.621 1213.5 882.166Z" stroke="#5B9BD5" stroke-width="6.875" stroke-linejoin="round" stroke-miterlimit="10" fill="none" fill-rule="evenodd"/><text fill="#C55A11" font-family="Arial,Arial_MSFontService,sans-serif" font-weight="700" font-size="73" transform="matrix(1 0 0 1 1376.22 758)">T</text><text fill="#C55A11" font-family="Arial,Arial_MSFontService,sans-serif" font-weight="700" font-size="73" transform="matrix(1 0 0 1 1416.85 758)">rustworthy</text><text font-family="Arial,Arial_MSFontService,sans-serif" font-weight="400" font-size="73" transform="matrix(1 0 0 1 1265.05 846)">Artificial intelligence </text><path d="M2054.5 671.334C2054.5 642.155 2078.15 618.5 2107.33 618.5L2596.67 618.5C2625.85 618.5 2649.5 642.155 2649.5 671.334L2649.5 882.666C2649.5 911.845 2625.85 935.5 2596.67 935.5L2107.33 935.5C2078.15 935.5 2054.5 911.845 2054.5 882.666Z" stroke="#5B9BD5" stroke-width="6.875" stroke-linejoin="round" stroke-miterlimit="10" fill="none" fill-rule="evenodd"/><text font-family="Arial,Arial_MSFontService,sans-serif" font-weight="400" font-size="73" transform="matrix(1 0 0 1 2169.56 759)">Real</text><text font-family="Arial,Arial_MSFontService,sans-serif" font-weight="400" font-size="73" transform="matrix(1 0 0 1 2319.66 759)">-</text><text font-family="Arial,Arial_MSFontService,sans-serif" font-weight="400" font-size="73" transform="matrix(1 0 0 1 2344.3 759)">World </text><text fill="#C55A11" font-family="Arial,Arial_MSFontService,sans-serif" font-weight="700" font-size="73" transform="matrix(1 0 0 1 2131.93 847)">Applications</text><path d="M43 317C31.1258 317 21.4998 307.76 21.4998 296.362L21.5002 179.138C21.5002 167.74 11.8742 158.5-2.5224e-15 158.5 11.8742 158.5 21.5002 149.26 21.5002 137.862L21.5002 20.6383C21.5002 9.24007 31.1261-5.04479e-15 43.0003-5.04479e-15" stroke="#5B9BD5" stroke-width="6.875" stroke-miterlimit="8" fill="none" fill-rule="evenodd" transform="matrix(-1 0 0 1 1175.5 618.5)"/><text font-family="Arial,Arial_MSFontService,sans-serif" font-weight="400" font-size="64" transform="matrix(1 0 0 1 741.868 692)">S</text><text font-family="Arial,Arial_MSFontService,sans-serif" font-weight="400" font-size="64" transform="matrix(1 0 0 1 784.837 692)">afety</text><text font-family="Arial,Arial_MSFontService,sans-serif" font-weight="400" font-size="64" transform="matrix(1 0 0 1 741.868 788)">Explainability</text><text font-family="Arial,Arial_MSFontService,sans-serif" font-weight="400" font-size="64" transform="matrix(1 0 0 1 741.868 883)">Efficiency</text><path d="M2718.5 935.5C2705.52 935.5 2695 925.4 2695 912.942L2695 807.558C2695 795.099 2684.48 785 2671.5 785 2684.48 785 2695 774.9 2695 762.442L2695 657.058C2695 644.6 2705.52 634.5 2718.5 634.5" stroke="#5B9BD5" stroke-width="6.875" stroke-miterlimit="8" fill="none" fill-rule="evenodd"/><text font-family="Arial,Arial_MSFontService,sans-serif" font-weight="400" font-size="64" transform="matrix(1 0 0 1 2751.41 693)">LLM: </text><text font-family="Arial,Arial_MSFontService,sans-serif" font-weight="400" font-size="64" transform="matrix(1 0 0 1 2907.72 693)">A</text><text font-family="Arial,Arial_MSFontService,sans-serif" font-weight="400" font-size="64" transform="matrix(1 0 0 1 2950.69 693)">gents, RAG</text><text font-family="Arial,Arial_MSFontService,sans-serif" font-weight="400" font-size="64" transform="matrix(1 0 0 1 2751.41 789)">Science</text><text font-family="Arial,Arial_MSFontService,sans-serif" font-weight="400" font-size="64" transform="matrix(1 0 0 1 2979.43 789)">: Protein Analysis</text><text font-family="Arial,Arial_MSFontService,sans-serif" font-weight="400" font-size="64" transform="matrix(1 0 0 1 2751.41 884)">Sports</text><text font-family="Arial,Arial_MSFontService,sans-serif" font-weight="400" font-size="64" transform="matrix(1 0 0 1 2936.46 884)">: Football Analysis</text><text font-family="Arial,Arial_MSFontService,sans-serif" font-weight="400" font-size="64" transform="matrix(1 0 0 1 2126.39 1008)">Promote</text><text font-family="Arial,Arial_MSFontService,sans-serif" font-weight="400" font-size="64" transform="matrix(1 0 0 1 1604.91 597)">R</text><text font-family="Arial,Arial_MSFontService,sans-serif" font-weight="400" font-size="64" transform="matrix(1 0 0 1 1651.32 597)">equire</text><path d="M1958.46 1023C2015.67 1023 2065.64 1002.95 2079.94 974.25L2063.8 974.25 2090.89 958 2110.02 974.25 2093.88 974.25C2079.58 1002.95 2029.61 1023 1972.4 1023Z" fill="#ED7D31" fill-rule="evenodd" fill-opacity="0.501961"/><path d="M1846.94 958C1846.94 992.496 1898.95 1020.98 1965.43 1022.9 1896.25 1024.89 1837.04 997.454 1833.19 961.611 1833.06 960.408 1833 959.204 1833 958Z" fill="#BF6427" fill-rule="evenodd" fill-opacity="0.501961"/><text font-family="Calibri,Calibri_MSFontService,sans-serif" font-weight="400" font-size="110" transform="matrix(1 0 0 1 2751.4 938)">…</text><path d="M1990.77 549C1933.66 549 1883.79 569.36 1869.51 598.5L1885.9 598.5 1858.46 615 1838.98 598.5 1855.36 598.5C1869.64 569.36 1919.51 549 1976.62 549Z" fill="#ED7D31" fill-rule="evenodd" fill-opacity="0.501961"/><path d="M2101.85 615C2101.85 579.998 2050 551.083 1983.69 549.105 2052.75 547.046 2111.89 574.878 2115.8 611.271 2115.93 612.513 2116 613.756 2116 615Z" fill="#BF6427" fill-rule="evenodd" fill-opacity="0.501961"/><text font-family="Calibri,Calibri_MSFontService,sans-serif" font-weight="400" font-size="110" transform="matrix(1 0 0 1 741.868 953)">…</text></g></svg>