<svg width="2801" height="574" xmlns="http://www.w3.org/2000/svg" xmlns:xlink="http://www.w3.org/1999/xlink" xml:space="preserve" overflow="hidden"><g transform="translate(-701 -515)"><path d="M1213.5 675.168C1213.5 642.214 1240.21 615.5 1273.17 615.5L1866.83 615.5C1899.79 615.5 1926.5 642.214 1926.5 675.168L1926.5 913.832C1926.5 946.786 1899.79 973.5 1866.83 973.5L1273.17 973.5C1240.21 973.5 1213.5 946.786 1213.5 913.832Z" stroke="#5B9BD5" stroke-width="6.875" stroke-linejoin="round" stroke-miterlimit="10" fill="none" fill-rule="evenodd"/><text fill="#C55A11" font-family="Arial,Arial_MSFontService,sans-serif" font-weight="700" font-size="73" transform="matrix(1 0 0 1 1359.25 733)">T</text><text fill="#C55A11" font-family="Arial,Arial_MSFontService,sans-serif" font-weight="700" font-size="73" transform="matrix(1 0 0 1 1399.88 733)">rustworth</text><text fill="#C55A11" font-family="Arial,Arial_MSFontService,sans-serif" font-weight="700" font-size="73" transform="matrix(1 0 0 1 1738.47 733)">y</text><text font-family="Arial,Arial_MSFontService,sans-serif" font-weight="400" font-size="73" transform="matrix(1 0 0 1 1314.54 821)">G</text><text font-family="Arial,Arial_MSFontService,sans-serif" font-weight="400" font-size="73" transform="matrix(1 0 0 1 1371.83 821)">raph </text><text font-family="Arial,Arial_MSFontService,sans-serif" font-weight="400" font-size="73" transform="matrix(1 0 0 1 1539.12 821)">Learning</text><text font-family="Arial,Arial_MSFontService,sans-serif" font-weight="400" font-size="73" transform="matrix(1 0 0 1 1312.54 909)">&amp; </text><text font-family="Arial,Arial_MSFontService,sans-serif" font-weight="400" font-size="73" transform="matrix(1 0 0 1 1381.86 909)">Large Models</text><path d="M2054.5 676.168C2054.5 644.319 2080.32 618.5 2112.17 618.5L2591.83 618.5C2623.68 618.5 2649.5 644.319 2649.5 676.168L2649.5 906.832C2649.5 938.681 2623.68 964.5 2591.83 964.5L2112.17 964.5C2080.32 964.5 2054.5 938.681 2054.5 906.832Z" stroke="#5B9BD5" stroke-width="6.875" stroke-linejoin="round" stroke-miterlimit="10" fill="none" fill-rule="evenodd"/><text font-family="Arial,Arial_MSFontService,sans-serif" font-weight="400" font-size="73" transform="matrix(1 0 0 1 2169.54 774)">Real</text><text font-family="Arial,Arial_MSFontService,sans-serif" font-weight="400" font-size="73" transform="matrix(1 0 0 1 2319.64 774)">-</text><text font-family="Arial,Arial_MSFontService,sans-serif" font-weight="400" font-size="73" transform="matrix(1 0 0 1 2344.28 774)">World </text><text fill="#C55A11" font-family="Arial,Arial_MSFontService,sans-serif" font-weight="700" font-size="73" transform="matrix(1 0 0 1 2131.93 862)">Applications</text><path d="M43 329C31.1258 329 21.4998 319.76 21.4998 308.362L21.5002 185.138C21.5002 173.74 11.8742 164.5-2.61788e-15 164.5 11.8742 164.5 21.5002 155.26 21.5002 143.862L21.5002 20.6381C21.5002 9.23997 31.1261-5.23576e-15 43.0003-5.23576e-15" stroke="#5B9BD5" stroke-width="6.875" stroke-miterlimit="8" fill="none" fill-rule="evenodd" transform="matrix(-1 0 0 1 1175.5 618.5)"/><text font-family="Arial,Arial_MSFontService,sans-serif" font-weight="400" font-size="64" transform="matrix(1 0 0 1 740.048 675)">F</text><text font-family="Arial,Arial_MSFontService,sans-serif" font-weight="400" font-size="64" transform="matrix(1 0 0 1 779.007 675)">airness</text><text font-family="Arial,Arial_MSFontService,sans-serif" font-weight="400" font-size="64" transform="matrix(1 0 0 1 740.048 771)">Privacy</text><text font-family="Arial,Arial_MSFontService,sans-serif" font-weight="400" font-size="64" transform="matrix(1 0 0 1 740.048 866)">Robustness</text><text font-family="Arial,Arial_MSFontService,sans-serif" font-weight="400" font-size="64" transform="matrix(1 0 0 1 740.048 961)">Explainability</text><path d="M2726.5 964.5C2711.31 964.5 2699 952.681 2699 938.102L2699 825.898C2699 811.319 2686.69 799.5 2671.5 799.5 2686.69 799.5 2699 787.681 2699 773.102L2699 660.898C2699 646.319 2711.31 634.5 2726.5 634.5" stroke="#5B9BD5" stroke-width="6.875" stroke-miterlimit="8" fill="none" fill-rule="evenodd"/><text font-family="Arial,Arial_MSFontService,sans-serif" font-weight="400" font-size="64" transform="matrix(1 0 0 1 2743.82 696)">AI </text><text font-family="Arial,Arial_MSFontService,sans-serif" font-weight="400" font-size="64" transform="matrix(1 0 0 1 2822.31 696)">for Social Good</text><text font-family="Arial,Arial_MSFontService,sans-serif" font-weight="400" font-size="64" transform="matrix(1 0 0 1 2743.82 792)">Science:</text><text font-family="Arial,Arial_MSFontService,sans-serif" font-weight="400" font-size="64" transform="matrix(1 0 0 1 3007.36 792)">Protein</text><text font-family="Arial,Arial_MSFontService,sans-serif" font-weight="400" font-size="64" transform="matrix(1 0 0 1 3224.4 792)">Analysi</text><text font-family="Arial,Arial_MSFontService,sans-serif" font-weight="400" font-size="64" transform="matrix(1 0 0 1 3431.23 792)">s</text><text font-family="Arial,Arial_MSFontService,sans-serif" font-weight="400" font-size="64" transform="matrix(1 0 0 1 2743.82 887)">Sports: Football Analysis</text><text font-family="Arial,Arial_MSFontService,sans-serif" font-weight="400" font-size="64" transform="matrix(1 0 0 1 2128.62 1035)">Promote</text><text font-family="Arial,Arial_MSFontService,sans-serif" font-weight="400" font-size="64" transform="matrix(1 0 0 1 1604.91 597)">R</text><text font-family="Arial,Arial_MSFontService,sans-serif" font-weight="400" font-size="64" transform="matrix(1 0 0 1 1651.32 597)">equire</text><path d="M1960.23 1051C2017.34 1051 2067.21 1030.64 2081.49 1001.5L2065.1 1001.5 2092.54 985 2112.02 1001.5 2095.64 1001.5C2081.36 1030.64 2031.49 1051 1974.38 1051Z" fill="#ED7D31" fill-rule="evenodd" fill-opacity="0.501961"/><path d="M1849.15 985C1849.15 1020 1901 1048.92 1967.31 1050.89 1898.25 1052.95 1839.11 1025.12 1835.2 988.729 1835.07 987.487 1835 986.244 1835 985Z" fill="#BF6427" fill-rule="evenodd" fill-opacity="0.501961"/><text font-family="Calibri,Calibri_MSFontService,sans-serif" font-weight="400" font-size="110" transform="matrix(1 0 0 1 2751.41 957)">…</text><path d="M1990.77 549C1933.66 549 1883.79 569.36 1869.51 598.5L1885.9 598.5 1858.46 615 1838.98 598.5 1855.36 598.5C1869.64 569.36 1919.51 549 1976.62 549Z" fill="#ED7D31" fill-rule="evenodd" fill-opacity="0.501961"/><path d="M2101.85 615C2101.85 579.998 2050 551.083 1983.69 549.105 2052.75 547.046 2111.89 574.878 2115.8 611.271 2115.93 612.513 2116 613.756 2116 615Z" fill="#BF6427" fill-rule="evenodd" fill-opacity="0.501961"/></g></svg>